<svg viewBox="0 0 396 396" xmlns="http://www.w3.org/2000/svg">
  <defs></defs>
  <rect x="10" y="10" width="47" height="47" style="fill: rgb(216, 216, 216); stroke: rgb(0, 0, 0);"></rect>
  <rect x="57" y="10" width="47" height="47" style="fill: rgb(16, 16, 16); stroke: rgb(0, 0, 0);"></rect>
  <rect x="104" y="10" width="47" height="47" style="fill: rgb(216, 216, 216); stroke: rgb(0, 0, 0);"></rect>
  <rect x="151" y="10" width="47" height="47" style="fill: rgb(16, 16, 16); stroke: rgb(0, 0, 0);"></rect>
  <rect x="198" y="10" width="47" height="47" style="fill: rgb(216, 216, 216); stroke: rgb(0, 0, 0);"></rect>
  <rect x="245" y="10" width="47" height="47" style="fill: rgb(16, 16, 16); stroke: rgb(0, 0, 0);"></rect>
  <rect x="292" y="10" width="47" height="47" style="fill: rgb(216, 216, 216); stroke: rgb(0, 0, 0);"></rect>
  <rect x="339" y="10" width="47" height="47" style="fill: rgb(16, 16, 16); stroke: rgb(0, 0, 0);"></rect>
  <rect x="10" y="57" width="47" height="47" style="fill: rgb(16, 16, 16); stroke: rgb(0, 0, 0);"></rect>
  <rect x="57" y="57" width="47" height="47" style="fill: rgb(216, 216, 216); stroke: rgb(0, 0, 0);"></rect>
  <rect x="104" y="57" width="47" height="47" style="fill: rgb(16, 16, 16); stroke: rgb(0, 0, 0);"></rect>
  <rect x="151" y="57" width="47" height="47" style="fill: rgb(216, 216, 216); stroke: rgb(0, 0, 0);"></rect>
  <rect x="198" y="57" width="47" height="47" style="fill: rgb(16, 16, 16); stroke: rgb(0, 0, 0);"></rect>
  <rect x="245" y="57" width="47" height="47" style="fill: rgb(216, 216, 216); stroke: rgb(0, 0, 0);"></rect>
  <rect x="292" y="57" width="47" height="47" style="fill: rgb(16, 16, 16); stroke: rgb(0, 0, 0);"></rect>
  <rect x="339" y="57" width="47" height="47" style="fill: rgb(216, 216, 216); stroke: rgb(0, 0, 0);"></rect>
  
  <rect x="10" y="104" width="47" height="47" style="fill: rgb(216, 216, 216); stroke: rgb(0, 0, 0);"></rect>
  <rect x="57" y="104" width="47" height="47" style="fill: rgb(16, 16, 16); stroke: rgb(0, 0, 0);"></rect>
  <rect x="104" y="104" width="47" height="47" style="fill: rgb(216, 216, 216); stroke: rgb(0, 0, 0);"></rect>
  <rect x="151" y="104" width="47" height="47" style="fill: rgb(16, 16, 16); stroke: rgb(0, 0, 0);"></rect>
  <rect x="198" y="104" width="47" height="47" style="fill: rgb(216, 216, 216); stroke: rgb(0, 0, 0);"></rect>
  <rect x="245" y="104" width="47" height="47" style="fill: rgb(16, 16, 16); stroke: rgb(0, 0, 0);"></rect>
  <rect x="292" y="104" width="47" height="47" style="fill: rgb(216, 216, 216); stroke: rgb(0, 0, 0);"></rect>
  <rect x="339" y="104" width="47" height="47" style="fill: rgb(16, 16, 16); stroke: rgb(0, 0, 0);"></rect>
  <rect x="10" y="151" width="47" height="47" style="fill: rgb(16, 16, 16); stroke: rgb(0, 0, 0);"></rect>
  <rect x="57" y="151" width="47" height="47" style="fill: rgb(216, 216, 216); stroke: rgb(0, 0, 0);"></rect>
  <rect x="104" y="151" width="47" height="47" style="fill: rgb(16, 16, 16); stroke: rgb(0, 0, 0);"></rect>
  <rect x="151" y="151" width="47" height="47" style="fill: rgb(216, 216, 216); stroke: rgb(0, 0, 0);"></rect>
  <rect x="198" y="151" width="47" height="47" style="fill: rgb(16, 16, 16); stroke: rgb(0, 0, 0);"></rect>
  <rect x="245" y="151" width="47" height="47" style="fill: rgb(216, 216, 216); stroke: rgb(0, 0, 0);"></rect>
  <rect x="292" y="151" width="47" height="47" style="fill: rgb(16, 16, 16); stroke: rgb(0, 0, 0);"></rect>
  <rect x="339" y="151" width="47" height="47" style="fill: rgb(216, 216, 216); stroke: rgb(0, 0, 0);"></rect>
  
  <rect x="10" y="198" width="47" height="47" style="fill: rgb(216, 216, 216); stroke: rgb(0, 0, 0);"></rect>
  <rect x="57" y="198" width="47" height="47" style="fill: rgb(16, 16, 16); stroke: rgb(0, 0, 0);"></rect>
  <rect x="104" y="198" width="47" height="47" style="fill: rgb(216, 216, 216); stroke: rgb(0, 0, 0);"></rect>
  <rect x="151" y="198" width="47" height="47" style="fill: rgb(16, 16, 16); stroke: rgb(0, 0, 0);"></rect>
  <rect x="198" y="198" width="47" height="47" style="fill: rgb(216, 216, 216); stroke: rgb(0, 0, 0);"></rect>
  <rect x="245" y="198" width="47" height="47" style="fill: rgb(16, 16, 16); stroke: rgb(0, 0, 0);"></rect>
  <rect x="292" y="198" width="47" height="47" style="fill: rgb(216, 216, 216); stroke: rgb(0, 0, 0);"></rect>
  <rect x="339" y="198" width="47" height="47" style="fill: rgb(16, 16, 16); stroke: rgb(0, 0, 0);"></rect>
  <rect x="10" y="245" width="47" height="47" style="fill: rgb(16, 16, 16); stroke: rgb(0, 0, 0);"></rect>
  <rect x="57" y="245" width="47" height="47" style="fill: rgb(216, 216, 216); stroke: rgb(0, 0, 0);"></rect>
  <rect x="104" y="245" width="47" height="47" style="fill: rgb(16, 16, 16); stroke: rgb(0, 0, 0);"></rect>
  <rect x="151" y="245" width="47" height="47" style="fill: rgb(216, 216, 216); stroke: rgb(0, 0, 0);"></rect>
  <rect x="198" y="245" width="47" height="47" style="fill: rgb(16, 16, 16); stroke: rgb(0, 0, 0);"></rect>
  <rect x="245" y="245" width="47" height="47" style="fill: rgb(216, 216, 216); stroke: rgb(0, 0, 0);"></rect>
  <rect x="292" y="245" width="47" height="47" style="fill: rgb(16, 16, 16); stroke: rgb(0, 0, 0);"></rect>
  <rect x="339" y="245" width="47" height="47" style="fill: rgb(216, 216, 216); stroke: rgb(0, 0, 0);"></rect>
  
  <rect x="10" y="292" width="47" height="47" style="fill: rgb(216, 216, 216); stroke: rgb(0, 0, 0);"></rect>
  <rect x="57" y="292" width="47" height="47" style="fill: rgb(16, 16, 16); stroke: rgb(0, 0, 0);"></rect>
  <rect x="104" y="292" width="47" height="47" style="fill: rgb(216, 216, 216); stroke: rgb(0, 0, 0);"></rect>
  <rect x="151" y="292" width="47" height="47" style="fill: rgb(16, 16, 16); stroke: rgb(0, 0, 0);"></rect>
  <rect x="198" y="292" width="47" height="47" style="fill: rgb(216, 216, 216); stroke: rgb(0, 0, 0);"></rect>
  <rect x="245" y="292" width="47" height="47" style="fill: rgb(16, 16, 16); stroke: rgb(0, 0, 0);"></rect>
  <rect x="292" y="292" width="47" height="47" style="fill: rgb(216, 216, 216); stroke: rgb(0, 0, 0);"></rect>
  <rect x="339" y="292" width="47" height="47" style="fill: rgb(16, 16, 16); stroke: rgb(0, 0, 0);"></rect>
  <rect x="10" y="339" width="47" height="47" style="fill: rgb(16, 16, 16); stroke: rgb(0, 0, 0);"></rect>
  <rect x="57" y="339" width="47" height="47" style="fill: rgb(216, 216, 216); stroke: rgb(0, 0, 0);"></rect>
  <rect x="104" y="339" width="47" height="47" style="fill: rgb(16, 16, 16); stroke: rgb(0, 0, 0);"></rect>
  <rect x="151" y="339" width="47" height="47" style="fill: rgb(216, 216, 216); stroke: rgb(0, 0, 0);"></rect>
  <rect x="198" y="339" width="47" height="47" style="fill: rgb(16, 16, 16); stroke: rgb(0, 0, 0);"></rect>
  <rect x="245" y="339" width="47" height="47" style="fill: rgb(216, 216, 216); stroke: rgb(0, 0, 0);"></rect>
  <rect x="292" y="339" width="47" height="47" style="fill: rgb(16, 16, 16); stroke: rgb(0, 0, 0);"></rect>
  <rect x="339" y="339" width="47" height="47" style="fill: rgb(216, 216, 216); stroke: rgb(0, 0, 0);"></rect>
  

  <text style="white-space: pre; fill: rgb(51, 51, 51); font-family: Arial, sans-serif; font-size: 8px;" x="33" y="9">a</text>
  <text style="white-space: pre; fill: rgb(51, 51, 51); font-family: Arial, sans-serif; font-size: 8px;" x="80" y="9">b</text>
  <text style="white-space: pre; fill: rgb(51, 51, 51); font-family: Arial, sans-serif; font-size: 8px;" x="127" y="9">c</text>
  <text style="white-space: pre; fill: rgb(51, 51, 51); font-family: Arial, sans-serif; font-size: 8px;" x="174" y="9">d</text>
  <text style="white-space: pre; fill: rgb(51, 51, 51); font-family: Arial, sans-serif; font-size: 8px;" x="221" y="9">e</text>
  <text style="white-space: pre; fill: rgb(51, 51, 51); font-family: Arial, sans-serif; font-size: 8px;" x="268" y="9">f</text>
  <text style="white-space: pre; fill: rgb(51, 51, 51); font-family: Arial, sans-serif; font-size: 8px;" x="315" y="9">g</text>
  <text style="white-space: pre; fill: rgb(51, 51, 51); font-family: Arial, sans-serif; font-size: 8px;" x="362" y="9">h</text>
  
  <text style="white-space: pre; fill: rgb(51, 51, 51); font-family: Arial, sans-serif; font-size: 8px;" x="33" y="394">a</text>
  <text style="white-space: pre; fill: rgb(51, 51, 51); font-family: Arial, sans-serif; font-size: 8px;" x="80" y="394">b</text>
  <text style="white-space: pre; fill: rgb(51, 51, 51); font-family: Arial, sans-serif; font-size: 8px;" x="127" y="394">c</text>
  <text style="white-space: pre; fill: rgb(51, 51, 51); font-family: Arial, sans-serif; font-size: 8px;" x="174" y="394">d</text>
  <text style="white-space: pre; fill: rgb(51, 51, 51); font-family: Arial, sans-serif; font-size: 8px;" x="221" y="394">e</text>
  <text style="white-space: pre; fill: rgb(51, 51, 51); font-family: Arial, sans-serif; font-size: 8px;" x="268" y="394">f</text>
  <text style="white-space: pre; fill: rgb(51, 51, 51); font-family: Arial, sans-serif; font-size: 8px;" x="315" y="394">g</text>
  <text style="white-space: pre; fill: rgb(51, 51, 51); font-family: Arial, sans-serif; font-size: 8px;" x="362" y="394">h</text>
  
  <text style="white-space: pre; fill: rgb(51, 51, 51); font-family: Arial, sans-serif; font-size: 8px;" y="33" x="0">8</text>
  <text style="white-space: pre; fill: rgb(51, 51, 51); font-family: Arial, sans-serif; font-size: 8px;" y="80" x="0">7</text>
  <text style="white-space: pre; fill: rgb(51, 51, 51); font-family: Arial, sans-serif; font-size: 8px;" y="127" x="0">6</text>
  <text style="white-space: pre; fill: rgb(51, 51, 51); font-family: Arial, sans-serif; font-size: 8px;" y="174" x="0">5</text>
  <text style="white-space: pre; fill: rgb(51, 51, 51); font-family: Arial, sans-serif; font-size: 8px;" y="221" x="0">4</text>
  <text style="white-space: pre; fill: rgb(51, 51, 51); font-family: Arial, sans-serif; font-size: 8px;" y="268" x="0">3</text>
  <text style="white-space: pre; fill: rgb(51, 51, 51); font-family: Arial, sans-serif; font-size: 8px;" y="315" x="0">2</text>
  <text style="white-space: pre; fill: rgb(51, 51, 51); font-family: Arial, sans-serif; font-size: 8px;" y="362" x="0">1</text>
  
  <text style="white-space: pre; fill: rgb(51, 51, 51); font-family: Arial, sans-serif; font-size: 8px;" y="33" x="394">8</text>
  <text style="white-space: pre; fill: rgb(51, 51, 51); font-family: Arial, sans-serif; font-size: 8px;" y="80" x="394">7</text>
  <text style="white-space: pre; fill: rgb(51, 51, 51); font-family: Arial, sans-serif; font-size: 8px;" y="127" x="394">6</text>
  <text style="white-space: pre; fill: rgb(51, 51, 51); font-family: Arial, sans-serif; font-size: 8px;" y="174" x="394">5</text>
  <text style="white-space: pre; fill: rgb(51, 51, 51); font-family: Arial, sans-serif; font-size: 8px;" y="221" x="394">4</text>
  <text style="white-space: pre; fill: rgb(51, 51, 51); font-family: Arial, sans-serif; font-size: 8px;" y="268" x="394">3</text>
  <text style="white-space: pre; fill: rgb(51, 51, 51); font-family: Arial, sans-serif; font-size: 8px;" y="315" x="394">2</text>
  <text style="white-space: pre; fill: rgb(51, 51, 51); font-family: Arial, sans-serif; font-size: 8px;" y="362" x="394">1</text>

</svg>