<svg width="46.99999999999999" height="46.99999999999999" xmlns="http://www.w3.org/2000/svg">

 <g>
  <title>Layer 1</title>
  <path id="svg_1" d="m23,17c-4,-2 -2,-9 -2,-8c0,0 -0,-1 3,-1c3.32761,-0.20687 3.56893,1.41376 4.99999,4.48275c1.43106,3.06899 -2.70686,6.17243 -2.75862,6.03447c0.05175,0.13796 -0.6379,15.31035 -0.68965,15.17239c0.05175,0.13796 15.05173,4.10347 14.99998,3.96551c0.05175,0.13796 0.05175,3.2414 0,3.10344c0.05175,0.13796 -29.25855,-1.931 -29.3103,-2.06896c0.05175,0.13796 0.56899,-4.51721 0.51724,-4.65517c0.05175,0.13796 8.67243,-1.06893 8.62068,-1.20689c0.05175,0.13796 2.46554,-13.65512 2.41379,-13.79308c0.05175,0.13796 3.84485,0.48279 0.22417,-1.41376z" opacity="NaN" stroke="#000" fill="#fff"/>
 </g>
</svg>